<?xml version="1.0" encoding="utf-8"?>
<!-- Generator: Adobe Illustrator 22.0.0, SVG Export Plug-In . SVG Version: 6.00 Build 0)  -->
<svg version="1.1" id="Layer_1" xmlns="http://www.w3.org/2000/svg" xmlns:xlink="http://www.w3.org/1999/xlink" x="0px" y="0px"
	 viewBox="0 0 337 116" style="enable-background:new 0 0 337 116;" xml:space="preserve">
<style type="text/css">
	.st0{fill:#EA1E63;}
</style>
<g>
	<g>
		<path class="st0" d="M89.5,24.8c8.3,0,13.5-5.6,13.5-12.5C102.9,5,97.8-0.4,89.7-0.4S76.3,5,76.5,12.3
			C76.3,19.2,81.6,24.8,89.5,24.8z"/>
	</g>
	<g>
		<path class="st0" d="M189.1-0.4c-8.1,0-13.4,5.4-13.2,12.7c-0.2,6.9,5.1,12.5,13,12.5c8.3,0,13.5-5.6,13.5-12.5
			C202.3,5,197.2-0.4,189.1-0.4z"/>
	</g>
	<g>
		<path class="st0" d="M176.5,34.7h-22.6l-7.1,13c-2.1,4-4.1,8.1-6.3,12.4h-0.3c-2.1-3.8-4.3-7.9-6.6-12l-7.9-13.4h-23.5h-4.6H79.9
			c-0.9-9.4-5.4-17.4-11.7-22.4c-7.4-5.9-18.5-8.9-34-8.9c-15.3,0-26.2,1-34,2.3v109.7h24.9V75.7c2.3,0.3,5.3,0.5,8.6,0.5
			c14.9,0,27.6-3.6,36.1-11.7c3.2-3,5.6-6.7,7.3-10.9v61.9H97h5.2h22.3l7.6-14.5c2-4,4.1-7.9,6.1-12.2h0.5c2,4.1,4,8.2,6.3,12.2
			l8.1,14.5h23.4h5h20.1V34.7h-20.4H176.5z M33.5,56.8c-3.6,0-6.3-0.2-8.4-0.7V23.4c1.8-0.5,5.3-1,10.4-1c12.5,0,19.6,6.1,19.6,16.3
			C55.1,50.1,46.9,56.8,33.5,56.8z M102.2,107.6V41.5l22.2,32.9L102.2,107.6z M154.6,73.2l21.9-31.7v66.2L154.6,73.2z"/>
	</g>
	<g>
		<path class="st0" d="M307.8,49.4c-14.4-5.4-20.6-8.6-20.6-15.7c0-5.8,5.3-10.7,16.2-10.7c10.9,0,18.8,3.1,23.3,5.3L332.2,8
			c-6.6-3-15.8-5.6-28.4-5.6c-23.1,0-38.1,11.3-41.4,26.9V4.2h-25.1v70c0,17.3-6.6,22.1-17.2,22.1c-5,0-9.4-0.8-12.9-2l-2.8,20.3
			c5,1.6,12.5,2.6,18.3,2.6c24.4,0,39.6-11.1,39.6-42.7V42.2c2.8,12.6,13.9,20.9,29.9,26.5c13.4,4.8,18.6,8.7,18.6,15.7
			c0,7.3-6.1,12-17.7,12c-10.7,0-21.1-3.5-27.9-6.9l-5.1,20.8c6.3,3.5,18.8,6.8,31.5,6.8c30.5,0,44.9-15.8,44.9-34.5
			C336.7,66.9,327.4,56.7,307.8,49.4z"/>
	</g>
</g>
</svg>
