<svg id="Capa_1" enable-background="new 0 0 512 512" height="512" viewBox="0 0 512 512" width="512" xmlns="http://www.w3.org/2000/svg"><g><path d="m436.209 134.752-5.745-4.139c-14.966-10.785-33.324-15.795-51.697-14.113-14.335 1.314-27.91 6.652-39.249 15.259-7.402-4.627-15.208-8.664-23.356-12.042v-28.2c0-26.149-11.499-50.774-31.549-67.56l-28.613-23.957-28.614 23.957c-20.05 16.786-31.55 41.411-31.55 67.56v27.723c-8.332 3.377-16.315 7.439-23.879 12.119-11.232-8.374-24.611-13.567-38.725-14.861-18.373-1.683-36.731 3.328-51.696 14.113l-5.746 4.14c-47.457 34.2-75.79 89.54-75.79 148.035v14.941h14.941c28.314 0 55.917-9.945 77.724-28.004l3.642-3.016c0 .021-.001.041-.001.062 0 26.539 5.826 52.263 17.176 76.59-27.274 27.303-38.311 67.491-28.802 104.896l16.202 63.745 83.059-83.059c23.07 18.208 44.747 30.047 56.538 35.876v47.183h29.881v-47.55c11.358-6.084 32.522-18.436 55.249-36.8l84.348 84.35 16.203-63.745c9.513-37.424-1.54-77.635-28.844-104.939l-.846-.846c11.925-24.415 18.063-49.853 18.063-75.702 0-.346-.011-.689-.013-1.034l4.815 3.987c21.807 18.059 49.41 28.004 77.724 28.004h14.941v-14.941c0-58.493-28.333-113.833-75.791-148.032zm-118.056 260.055c-.888.792-1.776 1.573-2.665 2.346l-15.123-26.102 18.419-31.789h45.8c-11 19.201-26.486 37.754-46.431 55.545zm-125.682 2.416c-20.821-18.091-36.775-37.456-47.813-57.961h48.908l18.419 31.789-16.605 28.659c-.97-.818-1.94-1.645-2.909-2.487zm1.5-244.119 18.047 31.392-18.28 31.795-57.301.042c11.49-27.001 31.911-49.321 57.534-63.229zm61.448-15.567c12.022 0 23.664 1.656 34.715 4.742l-15.682 27.277h-36.556l-15.886-27.631c10.662-2.857 21.859-4.388 33.409-4.388zm19.067 218.574h-36.623l-18.274-31.538 18.289-31.677h36.593l18.289 31.677zm-.015-93.096h-36.593l-18.305-31.706 18.324-31.872h36.556l18.324 31.872zm-80.821-16.843 18.35 31.783-18.144 31.426h-61.551c-4.064-13.775-6.118-27.988-6.118-42.612 0-6.992.566-13.854 1.64-20.549zm44.213 139.82h36.623l17.295 29.849c-15.638 11.191-29.231 18.906-36.664 22.856-7.314-3.568-20.511-10.514-35.721-20.832zm146.789-119.223c0 14.471-2.262 28.687-6.748 42.612h-59.411l-18.144-31.426 18.321-31.732 64.335-.047c1.078 6.708 1.647 13.585 1.647 20.593zm-66.012-50.427-18.309-31.846 17.681-30.755c25.075 13.941 45.055 35.978 56.375 62.56zm-92.922-124.825c0-17.281 7.6-33.555 20.85-44.649l9.432-7.896 9.432 7.897c13.25 11.093 20.85 27.367 20.85 44.648v19.152c-9.988-1.971-20.305-3.015-30.863-3.015-10.149 0-20.075.967-29.701 2.792zm-152.112 155.191c-12.357 10.233-27.179 17.014-42.843 19.76 4.627-42.745 27.256-82.078 62.497-107.473l5.746-4.14c14.161-10.205 32.565-11.325 47.61-4.07-20.615 19.35-36.089 44.113-44.122 72.001zm40.033 194.186c-6.231-24.514-.343-50.666 15.366-70.151 9.003 13.409 19.819 26.274 32.393 38.483l-44.498 44.497zm283.561 0-3.261 12.829-45.927-45.927c12.652-12.337 23.575-25.178 32.69-38.42 16.554 19.618 22.876 46.425 16.498 71.518zm41.194-194.186-30.429-25.199c-8.08-27.184-23.237-51.349-43.336-70.346 15.181-7.664 33.965-6.685 48.365 3.692l5.745 4.139c35.241 25.395 57.871 64.728 62.497 107.473-15.662-2.744-30.485-9.526-42.842-19.759z"/></g></svg>